<svg width="1200" height="200" viewBox="0 0 1200 200" fill="none" xmlns="http://www.w3.org/2000/svg">
<path d="M784.647 74.6562V126.172H798.756C813.616 126.172 821.959 117.078 821.959 100.391C821.959 83.7031 813.616 74.6562 798.756 74.6562H784.647Z" fill="black"/>
<path fill-rule="evenodd" clip-rule="evenodd" d="M1200 20H720V180H1200V20ZM913.026 112.578C913.308 127.062 923.245 134.937 939.276 134.937C953.948 134.937 963.651 127.531 963.651 115.859C963.651 105.641 957.651 99.3125 945.604 96.9218L934.87 94.8125C928.636 93.5468 925.026 90.2187 925.026 84.9218C925.026 78.5468 930.979 73.6718 939.558 73.6718H940.542C949.073 73.6718 955.542 78.8281 956.011 86.7968H964.636C964.167 74 954.745 65.8437 940.073 65.8437C926.011 65.6562 916.214 74.5625 916.401 85.0625C916.401 95.1875 922.214 101.234 933.042 103.484L943.823 105.687C951.37 107.234 954.979 110.562 954.979 116.234C954.979 122.375 949.683 127.109 940.448 127.109H939.464C928.917 127.109 921.651 121.906 921.651 112.578H913.026ZM799.694 134H776.022L776.022 66.7812H799.694C818.163 66.5937 830.772 79.6718 830.584 100.484C830.772 121.25 818.163 134.141 799.694 134ZM899.485 134L850.219 134V66.7812H898.501V74.6562H858.844V95.5156H892.735V103.344L858.844 103.344V126.172L899.485 126.172V134ZM992.521 134H983.896V66.7812H992.521V134ZM1012.02 100.391C1011.78 120.359 1024.62 135.219 1043.61 134.937C1053.73 135.031 1061.19 130.25 1064.05 126.031V134H1071.87V107.609C1071.87 102.687 1069.25 100.062 1064.37 100.062H1044.36V107.844H1064.05V110.234C1064.19 119.844 1056.12 127.25 1044.83 127.109H1043.89C1030.16 127.25 1020.55 117.078 1020.69 100.391C1020.55 83.7031 1030.2 73.5312 1043.8 73.6718H1044.73C1055 73.6718 1061.61 79.1562 1062.73 88.7187H1071.41C1070.42 75.4531 1060.53 65.75 1044.27 65.8437C1024.62 65.6093 1011.83 80.375 1012.02 100.391ZM1137.31 122.844V66.7812H1145.98V134H1134.26L1100.98 77.5625V134H1092.35V66.7812L1104.21 66.7812L1137.31 122.844Z" fill="black"/>
<path fill-rule="evenodd" clip-rule="evenodd" d="M510 180L450 100L510 20H650L710 100L650 180H510ZM547.625 134H539V66.7813H547.625V134ZM616.151 122.844V66.7813H624.823V134H613.104L579.823 77.5625V134H571.198V66.7813H583.057L616.151 122.844Z" fill="black"/>
<path d="M253.911 126.172V74.6563H268.021C282.88 74.6563 291.224 83.7032 291.224 100.391C291.224 117.078 282.88 126.172 268.021 126.172H253.911Z" fill="black"/>
<path d="M197.386 74.75L184.073 108.453H210.698L197.386 74.75Z" fill="black"/>
<path fill-rule="evenodd" clip-rule="evenodd" d="M80 20C35.8172 20 0 55.8172 0 100C0 144.183 35.8172 180 80 180H360C404.183 180 440 144.183 440 100C440 55.8172 404.183 20 360 20H80ZM245.286 134H268.958C287.427 134.141 300.036 121.25 299.849 100.484C300.036 79.6719 287.427 66.5938 268.958 66.7813L245.286 66.7813V134ZM229.823 134H220.776L213.792 116.281H180.979L173.995 134L165.183 134L192.089 66.7813H203.104L229.823 134ZM114.657 126.359L135.61 66.7813H149.86V134H141.282V74L120.282 134H108.985L87.6101 74.2344V134H78.9851V66.7813L93.4226 66.7813L114.657 126.359ZM368.75 134L319.484 134V66.7813L367.765 66.7813V74.6563L328.109 74.6563V95.5156H362V103.344L328.109 103.344V126.172L368.75 126.172V134Z" fill="black"/>
</svg>
