<?xml version="1.0" standalone="no"?>
<!DOCTYPE svg PUBLIC "-//W3C//DTD SVG 20010904//EN"
 "http://www.w3.org/TR/2001/REC-SVG-20010904/DTD/svg10.dtd">
<svg version="1.0" xmlns="http://www.w3.org/2000/svg"
 width="452.000000pt" height="111.000000pt" viewBox="0 0 452.000000 111.000000"
 preserveAspectRatio="xMidYMid meet">
<g transform="translate(0.000000,111.000000) scale(0.100000,-0.100000)"
fill="#000000" stroke="none">
<path d="M389 1085 c-83 -30 -239 -128 -333 -208 l-39 -34 155 -289 c86 -159
167 -311 180 -338 l25 -49 62 111 c235 418 293 723 153 805 -17 10 -42 16 -54
14 l-23 -4 22 -8 c13 -4 20 -11 17 -16 -3 -5 1 -6 9 -3 8 3 27 -10 45 -30 23
-26 32 -48 36 -88 6 -58 3 -94 -7 -104 -4 -4 -7 -20 -7 -35 0 -15 -4 -30 -10
-34 -5 -3 -7 -12 -4 -20 3 -7 -1 -29 -9 -47 -9 -18 -19 -48 -22 -67 -6 -26
-10 -30 -17 -20 -7 11 -8 9 -4 -5 4 -11 -4 -36 -18 -61 -14 -23 -23 -45 -20
-48 3 -3 0 -12 -7 -20 -12 -13 -16 -13 -34 1 -13 11 -11 6 5 -12 19 -23 21
-28 7 -23 -15 6 -16 4 -6 -16 6 -12 8 -19 4 -15 -9 9 -66 -93 -58 -104 2 -5
-3 -8 -12 -8 -11 0 -15 -5 -11 -15 3 -8 1 -15 -5 -15 -6 0 -8 -3 -6 -7 2 -5
-4 -16 -14 -25 -18 -17 -19 -16 -35 20 -9 20 -21 48 -26 62 -6 14 -11 28 -10
33 1 4 -1 6 -5 6 -20 -3 -25 2 -14 14 8 11 6 18 -9 32 -24 21 -27 14 -4 -9 8
-9 11 -16 5 -16 -18 0 -30 34 -20 53 8 14 7 15 -8 10 -17 -6 -17 -5 0 14 9 11
17 24 17 29 0 5 -5 1 -11 -8 -5 -10 -15 -18 -20 -18 -6 0 -8 4 -5 9 3 5 0 11
-8 14 -7 3 -16 18 -20 32 -4 15 -14 34 -22 42 -8 9 -13 20 -11 26 2 6 -7 21
-20 35 -26 28 -33 73 -9 53 10 -8 16 -9 21 -1 3 6 12 7 18 4 7 -4 8 -3 4 2 -5
5 -16 9 -25 10 -36 2 -74 24 -68 40 3 8 2 12 -4 9 -6 -3 -10 5 -10 19 0 14 -4
26 -8 26 -16 0 -33 48 -20 56 6 4 8 3 5 -3 -3 -5 0 -10 7 -10 7 0 12 10 12 21
-1 12 4 20 12 18 8 -1 11 2 8 7 -3 5 1 14 9 21 12 10 19 10 33 -1 15 -12 16
-12 5 2 -11 13 -8 19 16 37 16 12 35 23 42 24 8 2 22 12 32 23 10 11 15 13 11
5 -7 -13 -5 -13 9 -1 9 7 14 18 10 24 -4 6 0 8 10 4 10 -4 17 -1 17 5 0 6 3 8
6 5 4 -4 20 3 35 14 16 11 34 19 41 18 7 -1 26 3 42 10 16 6 36 9 43 7 8 -3
12 -2 8 3 -3 5 1 12 7 14 29 12 -60 4 -93 -8z"/>
<path d="M418 1048 c5 -5 16 -8 23 -6 8 3 3 7 -10 11 -17 4 -21 3 -13 -5z"/>
<path d="M1192 1030 c-42 -26 -67 -82 -55 -123 12 -42 45 -63 141 -91 98 -28
122 -46 122 -93 0 -74 -114 -95 -219 -41 -41 22 -50 24 -55 11 -3 -8 -6 -16
-6 -19 0 -2 23 -15 52 -30 45 -23 61 -26 129 -22 70 3 81 6 108 32 26 25 31
37 31 77 0 63 -29 92 -118 114 -93 23 -131 41 -143 68 -16 35 4 75 46 92 49
21 84 19 138 -8 38 -20 47 -21 52 -10 7 21 -2 31 -42 48 -52 22 -141 19 -181
-5z"/>
<path d="M2482 984 c5 -54 4 -56 -19 -51 -17 3 -23 0 -23 -14 0 -13 7 -19 23
-19 22 0 22 -2 19 -112 -3 -134 6 -161 57 -166 51 -5 81 5 81 28 0 21 -15 27
-25 10 -9 -15 -42 -12 -59 6 -13 12 -16 39 -16 129 l0 113 40 -5 c35 -5 40 -3
40 13 0 17 -6 19 -41 16 l-41 -4 4 56 c3 53 2 56 -21 56 -22 0 -23 -2 -19 -56z"/>
<path d="M381 1010 c-23 -20 -67 -28 -57 -11 10 15 -33 0 -46 -17 -10 -12 -10
-14 0 -8 6 4 12 3 12 -3 0 -5 -13 -15 -29 -22 -16 -7 -27 -18 -24 -24 4 -5 -3
-2 -14 8 -20 17 -20 17 -18 -8 2 -15 -1 -23 -7 -19 -6 4 -19 -4 -29 -17 -19
-24 -20 -24 -34 -5 -8 11 -15 15 -15 9 0 -7 5 -15 11 -19 8 -4 7 -9 -2 -16
-10 -7 -9 -8 6 -4 17 5 16 3 -5 -15 -14 -11 -20 -18 -14 -15 7 3 15 -2 18 -12
3 -9 12 -26 19 -37 31 -49 51 -91 49 -102 -2 -7 2 -13 9 -13 7 0 9 -10 7 -25
-4 -20 -3 -23 8 -14 11 9 14 7 15 -12 1 -13 1 -28 0 -32 -1 -5 3 -6 8 -3 7 5
25 -22 21 -32 0 -1 6 -10 15 -19 9 -8 14 -22 11 -30 -4 -9 -2 -11 6 -7 8 5 9
2 5 -9 -4 -10 -2 -16 5 -14 6 1 17 -9 25 -23 7 -14 18 -24 24 -22 6 1 17 -2
24 -8 10 -9 13 -7 10 7 -1 10 -8 17 -14 15 -7 -1 -4 8 6 22 10 13 21 22 25 20
4 -3 5 5 3 16 -2 11 0 20 4 20 5 0 11 9 14 21 3 12 10 18 17 14 6 -4 9 -14 5
-24 -5 -13 -4 -13 6 -4 10 10 9 17 -6 33 -16 18 -14 24 7 21 4 0 4 7 1 16 -4
10 -2 14 4 10 5 -3 10 -1 10 6 1 7 13 39 27 72 14 33 26 68 26 78 0 10 6 30
13 45 16 31 15 94 -1 133 -18 44 -79 88 -114 82 -20 -3 -28 -1 -23 6 9 15 3
13 -24 -9z m-61 -24 c0 -11 -19 -15 -25 -6 -3 5 1 10 9 10 9 0 16 -2 16 -4z
m160 -11 c74 -38 60 -167 -39 -369 -32 -67 -65 -129 -72 -139 -13 -15 -25 3
-118 174 l-105 192 39 33 c79 66 190 123 243 124 13 0 36 -7 52 -15z"/>
<path d="M215 801 c-3 -5 -2 -12 3 -15 5 -3 9 1 9 9 0 17 -3 19 -12 6z"/>
<path d="M538 983 c6 -2 9 -10 6 -15 -4 -7 -2 -8 5 -4 13 9 5 26 -12 25 -9 0
-8 -2 1 -6z"/>
<path d="M1515 714 c0 -217 1 -224 20 -224 19 0 20 5 15 104 l-5 103 37 -38
c49 -50 92 -59 152 -29 101 49 116 198 27 273 -57 48 -125 48 -181 1 l-30 -26
0 29 c0 20 -5 29 -17 30 -17 1 -18 -15 -18 -223z m213 169 c72 -45 62 -186
-16 -222 -46 -22 -82 -13 -123 28 -35 34 -39 44 -39 87 1 60 17 92 61 115 37
20 78 17 117 -8z"/>
<path d="M1960 922 c-66 -33 -103 -119 -81 -192 52 -174 300 -139 302 43 1 53
-12 85 -47 119 -54 50 -114 61 -174 30z m117 -32 c37 -22 58 -53 68 -96 14
-69 -50 -144 -121 -144 -55 0 -114 65 -114 125 0 42 36 100 72 118 43 21 56
21 95 -3z"/>
<path d="M2258 779 l-3 -159 23 0 c21 0 22 3 22 108 0 105 1 109 28 135 15 15
41 29 58 33 20 4 30 12 31 25 1 10 -3 19 -8 19 -25 0 -78 -30 -98 -56 l-22
-29 3 37 c3 28 0 38 -14 41 -16 4 -17 -9 -20 -154z"/>
<path d="M110 780 c-9 -6 -10 -10 -3 -10 6 0 15 5 18 10 8 12 4 12 -15 0z"/>
<path d="M166 652 c-2 -4 -1 -14 4 -22 7 -11 9 -9 7 8 -1 24 -3 26 -11 14z"/>
<path d="M480 521 c0 -6 4 -13 10 -16 6 -3 7 1 4 9 -7 18 -14 21 -14 7z"/>
<path d="M1707 425 c-21 -45 -22 -42 8 -47 21 -4 30 2 55 38 l29 44 -37 0
c-34 0 -40 -4 -55 -35z m53 5 c0 -5 -10 -14 -22 -20 -21 -10 -21 -10 -5 3 19
16 24 32 5 21 -7 -4 -8 -3 -4 5 8 12 26 6 26 -9z"/>
<path d="M1140 233 l0 -218 117 5 c129 6 162 17 206 69 37 44 50 94 44 167
-11 140 -91 194 -287 194 l-80 0 0 -217z m225 179 c54 -17 95 -47 95 -69 0 -8
4 -12 9 -8 6 3 10 -3 10 -12 1 -10 3 -47 5 -83 4 -70 -12 -120 -45 -144 -10
-7 -16 -16 -11 -20 4 -4 0 -6 -8 -4 -8 1 -14 -3 -12 -9 2 -15 -14 -17 -23 -4
-5 10 -43 7 -54 -4 -3 -4 7 -4 22 -1 15 3 25 1 23 -3 -3 -5 -40 -9 -83 -10
-43 -1 -88 -5 -100 -8 -22 -5 -25 -1 -25 32 0 8 0 93 1 189 l1 174 73 0 c39 0
95 -7 122 -16z"/>
<path d="M1215 379 c-12 -19 -10 -288 3 -301 7 -7 35 -8 79 -4 92 8 93 8 93
18 0 5 5 6 12 2 8 -5 9 -2 5 9 -4 10 -2 16 6 14 7 -1 11 6 9 15 -3 20 14 24
21 6 4 -10 6 -10 6 -1 1 6 -3 14 -8 17 -5 3 -7 15 -4 26 3 11 9 18 13 15 10
-6 25 34 16 42 -3 4 -6 -1 -6 -10 0 -10 -4 -17 -9 -17 -6 0 -6 12 0 32 11 41
11 47 -1 28 -10 -15 -10 -13 -14 52 -2 18 -8 22 -28 16 -7 -3 -5 -15 7 -38 22
-42 16 -120 -12 -158 -29 -39 -60 -52 -126 -52 l-58 0 2 140 1 140 62 0 c40 0
69 -6 84 -16 21 -15 25 -15 41 0 14 13 20 13 31 3 8 -6 6 -2 -4 11 -21 25 -27
27 -23 11 1 -6 -4 -14 -12 -17 -8 -2 -11 0 -7 6 3 6 1 14 -5 18 -8 5 -9 3 -4
-6 6 -10 4 -11 -11 -5 -32 15 -151 18 -159 4z"/>
<path d="M3980 385 c0 -51 -2 -55 -23 -55 -20 0 -23 -4 -19 -30 3 -21 10 -30
23 -30 17 0 19 -9 19 -109 0 -106 1 -110 26 -130 30 -23 65 -26 113 -10 22 8
30 16 27 26 -3 8 -6 22 -6 30 0 11 -7 14 -27 10 -49 -9 -53 -2 -53 94 l0 89
35 0 c32 0 35 2 35 30 0 28 -2 30 -41 30 -28 0 -38 -4 -33 -12 5 -8 2 -9 -9
-5 -9 3 -19 3 -21 -2 -7 -11 26 -10 41 1 7 6 14 5 18 -2 8 -13 8 -13 -29 -25
-16 -6 -31 -17 -33 -25 -4 -13 -3 -13 6 0 7 11 10 -8 9 -70 -1 -70 -5 -89 -22
-110 l-21 -25 21 18 c23 19 39 23 29 7 -4 -6 -3 -10 2 -9 20 3 34 -2 28 -11
-3 -6 -1 -10 4 -10 6 0 11 4 11 8 0 5 6 9 14 9 7 0 13 -7 11 -16 -1 -12 -12
-15 -39 -14 -20 1 -34 -2 -31 -8 3 -5 -1 -6 -9 -3 -9 3 -14 10 -11 14 3 4 -4
10 -14 13 -14 3 -18 11 -14 26 3 12 9 21 14 21 5 0 9 5 9 11 0 5 -4 8 -8 5 -5
-3 -9 0 -9 7 -1 7 -2 43 -3 82 -2 42 -8 75 -17 83 -15 16 -8 36 10 26 7 -4 9
-4 5 0 -3 4 -2 21 2 37 7 22 6 28 -3 22 -9 -5 -8 -2 0 9 7 8 10 18 6 21 -3 4
1 7 9 7 20 0 28 -21 22 -54 -3 -20 -1 -24 11 -20 11 4 15 21 15 55 l0 49 -40
0 -40 0 0 -55z"/>
<path d="M1641 319 c-80 -36 -111 -153 -62 -233 50 -80 174 -99 250 -38 47 38
48 48 6 55 -28 5 -41 1 -57 -15 -16 -16 -29 -19 -63 -16 -26 3 -49 0 -60 -8
-16 -12 -22 -11 -42 8 -21 20 -22 23 -8 44 12 19 12 23 0 28 -10 3 -12 0 -8
-11 4 -11 2 -14 -5 -9 -8 5 -10 1 -5 -11 3 -10 3 -15 -2 -11 -12 11 -13 91 -2
105 5 7 7 20 3 28 -4 10 3 19 19 27 13 6 22 15 19 19 -3 5 3 6 12 2 11 -4 15
-2 11 4 -4 6 1 14 11 18 25 11 102 14 102 4 0 -5 7 -6 15 -3 8 4 17 -1 21 -10
3 -9 10 -14 15 -11 8 6 41 -37 46 -59 1 -6 5 -22 8 -36 5 -19 4 -22 -4 -10 -6
8 -11 11 -11 5 0 -5 -12 -11 -28 -11 -15 -1 -21 1 -14 3 6 3 10 9 6 14 -7 12
-184 12 -184 -1 0 -5 12 -11 28 -11 20 -1 22 -2 7 -6 -41 -10 -51 -30 -31 -62
7 -11 5 -13 -6 -8 -17 6 -19 -16 -3 -30 4 -4 5 -2 1 5 -9 14 10 17 19 2 4 -6
11 -8 16 -5 5 4 3 15 -6 28 -31 44 -23 47 111 47 l127 0 -7 41 c-10 62 -32 96
-80 124 -51 30 -105 31 -165 4z m199 -234 c0 -1 -12 -12 -27 -26 -14 -13 -23
-18 -19 -11 8 14 5 15 -18 6 -9 -3 -14 -10 -11 -15 5 -7 -33 -7 -103 0 -21 2
-3 21 19 21 11 0 18 -4 15 -8 -11 -18 54 -8 79 13 15 11 36 21 46 21 10 0 19
-1 19 -1z"/>
<path d="M2012 323 c-90 -44 -118 -150 -62 -241 24 -38 89 -72 140 -72 45 0
115 32 130 60 14 25 15 24 -30 36 -28 8 -38 6 -52 -8 -45 -45 -125 -4 -135 68
-4 33 -1 45 22 72 31 38 83 44 113 14 12 -12 25 -16 38 -11 10 4 27 10 37 13
50 16 -56 86 -129 86 -21 0 -54 -8 -72 -17z m23 -13 c-3 -5 -2 -10 4 -10 5 0
12 4 15 8 8 13 76 13 76 1 0 -6 4 -8 9 -5 5 3 21 -6 36 -20 l27 -25 -26 3
c-14 2 -29 8 -33 13 -5 4 -2 5 6 0 10 -6 12 -4 7 4 -5 7 -15 10 -23 7 -8 -3
-12 -2 -9 3 3 5 -1 11 -9 15 -8 3 -17 0 -21 -6 -4 -7 -3 -8 4 -4 7 4 12 3 12
-2 0 -6 -18 -9 -40 -8 -29 2 -40 -2 -40 -12 0 -10 -8 -13 -27 -9 -24 4 -25 4
-10 -7 16 -12 15 -14 -6 -25 -12 -6 -14 -9 -4 -7 14 5 16 2 8 -12 -5 -9 -8
-28 -7 -42 1 -14 -2 -33 -7 -44 -6 -12 -5 -16 1 -12 5 3 18 -2 29 -12 10 -9
14 -13 7 -9 -7 4 -15 3 -19 -2 -9 -16 -41 8 -43 33 0 11 -4 38 -7 58 -3 21 -1
39 5 43 6 4 7 11 4 17 -5 7 -2 8 6 3 10 -6 12 -4 7 8 -4 11 1 18 14 22 10 4
17 11 14 16 -3 5 0 6 8 3 8 -3 17 2 20 10 4 9 9 16 12 16 4 0 3 -4 0 -10z m34
-250 c38 -10 47 -9 56 3 12 16 75 31 75 17 0 -15 -33 -35 -53 -32 -11 2 -17
-1 -13 -7 4 -6 -5 -9 -24 -8 -16 1 -30 7 -30 12 0 6 -4 4 -8 -3 -7 -10 -15
-10 -43 0 -30 12 -35 19 -30 44 0 4 7 2 14 -4 6 -5 32 -15 56 -22z"/>
<path d="M2166 63 c-6 -14 -5 -15 5 -6 7 7 10 15 7 18 -3 3 -9 -2 -12 -12z"/>
<path d="M2020 56 c0 -2 9 -6 20 -9 11 -3 18 -1 14 4 -5 9 -34 13 -34 5z"/>
<path d="M2350 318 c-50 -26 -90 -89 -90 -144 0 -81 83 -163 164 -164 70 0
161 58 141 90 -4 6 -1 9 6 8 16 -4 29 57 22 97 -21 109 -142 165 -243 113z
m34 -10 c-6 -10 -5 -10 7 -1 21 17 91 10 117 -12 23 -21 30 -50 10 -42 -7 2
-12 9 -11 15 2 6 -3 9 -11 6 -8 -3 -17 0 -21 5 -3 6 -11 8 -17 5 -8 -5 -9 -1
-4 11 5 15 4 16 -8 6 -8 -7 -20 -10 -26 -6 -7 4 -18 -3 -27 -14 -11 -16 -18
-19 -28 -11 -9 7 -16 6 -24 -4 -9 -10 -9 -16 -1 -21 8 -5 8 -11 0 -21 -15 -17
-22 -84 -9 -84 6 0 8 -14 5 -31 -4 -27 -3 -29 12 -17 14 11 15 10 8 -7 -4 -11
-4 -16 0 -13 4 4 16 2 27 -4 38 -20 80 -16 101 10 12 15 25 22 38 18 11 -2 17
-2 14 1 -3 4 -1 12 5 19 9 10 7 15 -4 20 -9 3 -13 12 -10 20 3 8 10 11 17 7 7
-4 6 -1 -2 9 -7 8 -9 24 -5 33 4 13 3 16 -6 10 -9 -5 -12 -2 -9 11 2 12 12 19
26 20 12 1 21 -1 18 -3 -3 -3 -1 -16 4 -29 6 -15 6 -24 0 -24 -6 0 -10 5 -10
12 0 6 -3 8 -6 5 -4 -4 -1 -13 5 -21 14 -16 23 -68 11 -61 -4 2 -14 -11 -23
-30 -9 -19 -24 -35 -32 -35 -10 0 -13 5 -9 12 4 7 3 8 -5 4 -9 -6 -9 -11 0
-22 6 -8 8 -14 3 -15 -75 -6 -139 -2 -136 9 1 8 -2 11 -8 7 -6 -4 -19 4 -30
17 -11 13 -20 19 -20 13 -1 -5 -7 4 -14 20 -14 34 -12 120 3 139 6 7 7 16 3
20 -4 4 0 6 8 4 8 -2 14 2 13 8 -1 7 9 15 22 18 14 4 25 11 25 16 0 6 5 10 11
10 5 0 7 -6 3 -12z m-24 -48 c0 -5 -5 -10 -11 -10 -5 0 -7 5 -4 10 3 6 8 10
11 10 2 0 4 -4 4 -10z m112 -1 c31 -17 49 -70 37 -112 -17 -64 -81 -87 -131
-47 -32 25 -42 71 -24 115 22 51 70 69 118 44z m68 -133 c0 -3 -4 -8 -10 -11
-5 -3 -10 -1 -10 4 0 6 5 11 10 11 6 0 10 -2 10 -4z"/>
<path d="M2475 301 c-3 -5 -2 -12 3 -15 5 -3 9 1 9 9 0 17 -3 19 -12 6z"/>
<path d="M2290 137 c0 -2 6 -10 14 -16 11 -9 16 -9 22 1 4 7 4 10 -1 6 -4 -4
-14 -3 -22 3 -7 6 -13 9 -13 6z"/>
<path d="M2650 217 c0 -175 26 -217 125 -202 37 5 57 16 89 47 22 22 36 37 29
34 -16 -9 -28 13 -14 27 6 6 11 48 11 99 0 81 2 88 20 88 19 0 20 -7 20 -108
0 -73 4 -112 13 -121 8 -10 8 -12 0 -7 -6 3 -14 2 -18 -4 -3 -5 1 -10 10 -10
22 0 14 -23 -9 -26 -11 -2 -16 2 -12 11 2 7 -2 16 -10 19 -22 8 -24 8 -24 -8
0 -20 39 -46 67 -46 20 0 23 5 23 34 0 19 -4 38 -10 41 -6 4 -10 57 -10 126
l0 119 -40 0 -40 0 0 -100 c0 -96 -1 -102 -26 -125 -15 -14 -39 -25 -53 -25
-51 0 -56 10 -59 134 l-4 114 -39 4 -39 4 0 -119z m48 4 c-2 -49 0 -87 5 -84
4 2 7 -5 7 -17 0 -36 60 -77 94 -64 8 3 16 2 19 -3 3 -5 -2 -9 -11 -10 -9 -1
-31 -5 -48 -9 -38 -7 -74 10 -74 36 0 10 -4 21 -8 24 -5 3 -10 53 -11 111 -2
91 0 105 14 105 14 0 16 -12 13 -89z"/>
<path d="M2703 65 c0 -8 4 -12 8 -9 4 2 10 -2 12 -8 4 -8 6 -9 6 -2 1 6 -5 17
-12 23 -10 8 -14 7 -14 -4z"/>
<path d="M3004 325 c2 -5 27 -76 57 -157 l53 -148 47 0 46 0 56 154 c32 85 57
156 57 158 0 2 -17 2 -38 0 l-37 -4 -37 -115 c-28 -86 -35 -120 -27 -132 9
-14 10 -14 5 2 -3 11 0 20 10 24 18 7 33 -5 17 -15 -6 -4 -13 -16 -15 -27 -4
-25 -46 -39 -64 -21 -7 8 -16 27 -20 42 -4 16 -11 34 -16 40 -4 6 -5 20 -1 29
5 14 3 16 -7 10 -10 -6 -12 -2 -8 18 3 15 2 24 -2 22 -11 -7 -39 57 -37 83 2
35 24 26 38 -15 7 -21 14 -40 14 -43 10 -57 19 -88 30 -100 7 -8 15 -24 16
-34 4 -21 29 -35 29 -16 0 6 -4 9 -9 6 -5 -3 -8 0 -7 7 0 6 -15 62 -34 124
l-35 111 -42 4 c-26 2 -42 -1 -39 -7z m269 -65 c-9 -22 -20 -37 -24 -34 -5 3
-9 1 -9 -5 0 -5 5 -11 12 -13 12 -4 -29 -88 -44 -88 -13 0 -9 12 10 27 16 14
16 14 -2 9 -15 -5 -17 -4 -8 7 7 7 13 22 15 33 2 10 12 37 22 59 10 22 18 46
18 52 0 9 4 10 13 2 9 -8 9 -18 -3 -49z"/>
<path d="M3438 327 c-64 -30 -98 -82 -98 -153 0 -147 175 -219 283 -116 35 33
34 39 -5 45 -23 3 -41 -2 -57 -14 -35 -28 -77 -24 -112 10 -16 16 -29 34 -29
40 0 7 42 11 125 11 l125 0 0 30 c0 83 -67 151 -153 156 -29 2 -64 -2 -79 -9z
m78 -19 c4 -7 4 -10 -1 -6 -4 4 -15 3 -25 -2 -12 -6 -17 -5 -17 6 0 17 33 19
43 2z m31 -3 c0 -8 -4 -15 -9 -15 -4 0 -8 7 -8 15 0 8 4 15 8 15 5 0 9 -7 9
-15z m-87 -5 c0 -5 -8 -10 -17 -10 -15 0 -16 -2 -3 -9 8 -6 26 -7 42 -4 43 8
76 -5 93 -37 8 -16 15 -31 15 -35 0 -3 -38 -5 -85 -5 -91 0 -99 5 -69 48 8 12
11 22 5 22 -5 0 -13 -4 -16 -10 -9 -15 -22 -12 -29 6 -4 12 -1 14 14 9 15 -5
18 -3 14 8 -3 10 2 17 13 20 10 3 19 5 21 6 1 0 2 -3 2 -9z m135 -12 c14 -12
25 -28 25 -35 0 -8 4 -12 9 -9 4 3 8 -5 7 -17 -1 -12 3 -25 8 -29 6 -4 8 -9 5
-12 -10 -11 -78 -15 -84 -6 -3 6 1 7 9 4 9 -3 16 -5 16 -3 0 2 4 19 10 38 5
19 7 31 3 27 -9 -8 -34 14 -27 25 3 5 1 9 -4 9 -5 0 -9 7 -9 15 0 19 2 19 32
-7z m-194 -81 c-8 -19 -7 -30 2 -39 8 -8 10 -23 7 -38 -9 -31 7 -63 26 -56 8
3 17 -1 20 -9 4 -8 11 -12 17 -8 6 4 7 1 2 -7 -6 -10 -2 -11 21 -5 16 4 36 8
44 9 8 0 20 7 26 15 6 8 21 15 33 16 l22 2 -23 -22 c-13 -12 -26 -21 -30 -19
-4 3 -9 0 -12 -5 -4 -5 -30 -8 -59 -6 -71 5 -76 7 -74 19 1 6 -4 10 -10 8 -7
-1 -13 5 -13 13 0 8 -4 15 -9 15 -8 0 -19 29 -27 72 -2 10 -5 21 -6 25 -2 4 3
23 11 41 12 28 16 31 28 19 10 -10 11 -20 4 -40z m19 -27 c0 -5 -2 -10 -4 -10
-3 0 -8 5 -11 10 -3 6 -1 10 4 10 6 0 11 -4 11 -10z m8 -95 c-3 -3 -9 2 -12
12 -6 14 -5 15 5 6 7 -7 10 -15 7 -18z"/>
<path d="M3385 219 c-4 -6 -5 -12 -2 -15 2 -3 7 2 10 11 7 17 1 20 -8 4z"/>
<path d="M3380 139 c0 -5 5 -7 10 -4 6 3 10 8 10 11 0 2 -4 4 -10 4 -5 0 -10
-5 -10 -11z"/>
<path d="M3864 330 c-12 -4 -30 -20 -42 -34 -26 -34 -33 -33 -27 4 5 29 4 30
-35 30 l-40 0 0 -154 0 -154 40 -4 40 -4 0 92 c0 51 3 100 6 109 8 19 55 45
84 45 17 0 20 6 20 40 0 42 -7 46 -46 30z m-88 -32 c5 -7 2 -8 -7 -3 -8 4 -2
-5 12 -21 25 -28 29 -54 7 -54 -6 0 -5 7 3 18 12 16 12 16 -6 0 -15 -14 -16
-20 -5 -32 8 -11 9 -16 1 -16 -6 0 -11 -5 -11 -11 0 -5 4 -8 9 -5 8 5 6 -47
-4 -97 -2 -9 1 -15 6 -11 5 3 9 0 9 -5 0 -6 -12 -11 -26 -11 -20 0 -25 4 -20
16 3 9 6 67 6 130 0 105 7 133 26 102z m107 -3 c7 -17 0 -22 -38 -29 l-28 -5
23 24 c27 29 36 31 43 10z"/>
<path d="M4275 329 c-66 -25 -105 -82 -105 -155 0 -126 128 -201 247 -143 24
12 48 30 54 40 8 16 5 21 -16 29 -34 13 -33 13 -62 -10 -29 -22 -80 -26 -104
-7 -15 11 -39 49 -39 61 0 3 56 6 125 6 l125 0 0 39 c0 42 -29 92 -70 123 -31
23 -114 32 -155 17z m85 -19 c3 -1 9 -2 14 -1 17 3 46 -11 41 -20 -4 -5 4 -9
16 -9 17 0 20 -3 12 -11 -14 -14 -53 -2 -53 15 0 8 -14 12 -41 12 -22 -1 -43
2 -46 7 -2 4 -9 7 -14 7 -6 0 -7 -5 -4 -10 3 -6 -1 -13 -9 -16 -9 -3 -13 -10
-10 -15 3 -5 13 -5 24 1 48 25 111 2 125 -47 6 -23 5 -23 -79 -23 -87 0 -104
8 -74 38 10 10 9 16 -4 28 -11 11 -18 12 -22 5 -4 -6 -2 -11 4 -11 6 0 8 -5 4
-11 -4 -8 -9 -7 -15 2 -6 10 -9 10 -9 2 0 -6 5 -15 10 -18 6 -4 8 -11 5 -16
-8 -11 20 -41 29 -31 4 3 4 -1 0 -11 -3 -9 -10 -15 -14 -12 -15 10 -18 -23 -4
-50 15 -30 19 -48 5 -26 -6 9 -11 10 -15 2 -6 -10 6 -15 26 -12 4 0 23 -8 41
-18 33 -18 87 -18 87 0 0 5 7 9 16 9 8 0 13 4 10 9 -4 5 4 7 16 3 19 -5 20 -6
4 -12 -10 -3 -18 -10 -19 -15 -4 -22 -116 -30 -124 -9 -3 8 -13 14 -22 14 -14
0 -14 -2 -1 -10 8 -5 12 -11 9 -15 -9 -8 -89 77 -90 97 -3 48 -1 65 10 91 6
16 11 31 11 35 1 4 16 19 35 33 26 20 45 26 73 24 20 -1 39 -4 42 -5z m97 -57
c-4 -3 -2 -12 4 -20 14 -16 21 -65 9 -58 -5 3 -20 1 -34 -5 -14 -5 -26 -6 -26
-2 0 4 -21 6 -47 3 -27 -2 -46 -1 -43 2 3 3 25 6 50 8 51 3 71 14 63 35 -7 19
3 44 18 44 7 0 9 -3 6 -7z m-150 -79 c-3 -3 -12 -4 -19 -1 -8 3 -5 6 6 6 11 1
17 -2 13 -5z"/>
<path d="M4200 145 c6 -8 8 -20 4 -27 -5 -10 -4 -10 5 -2 13 12 5 44 -11 44
-6 0 -5 -6 2 -15z"/>
<path d="M1690 296 c-35 -15 -85 -66 -86 -87 -1 -15 2 -16 17 -8 11 5 19 16
19 24 0 21 49 55 80 55 31 0 80 -34 80 -55 0 -8 9 -19 21 -25 19 -11 20 -10 9
10 -7 13 -8 20 -2 16 6 -3 14 -1 18 5 4 7 3 9 -4 5 -6 -3 -17 1 -24 9 -7 9
-18 22 -25 29 -7 8 -9 17 -5 21 4 4 0 6 -8 3 -8 -3 -26 -2 -40 2 -14 4 -36 2
-50 -4z"/>
<path d="M4175 300 c-3 -6 1 -7 9 -4 18 7 21 14 7 14 -6 0 -13 -4 -16 -10z"/>
<path d="M3055 270 c3 -5 8 -10 11 -10 2 0 4 5 4 10 0 6 -5 10 -11 10 -5 0 -7
-4 -4 -10z"/>
<path d="M3071 234 c0 -11 3 -14 6 -6 3 7 2 16 -1 19 -3 4 -6 -2 -5 -13z"/>
<path d="M2095 130 c-3 -6 1 -7 9 -4 18 7 21 14 7 14 -6 0 -13 -4 -16 -10z"/>
<path d="M271 109 c-99 -17 -132 -45 -87 -74 30 -20 180 -37 166 -19 -6 6 -23
11 -39 12 -17 0 -40 6 -53 13 -13 7 -25 11 -28 10 -3 -1 -6 4 -8 11 -1 8 8 13
25 14 187 7 229 8 238 3 6 -4 23 -9 40 -13 25 -6 27 -9 13 -17 -9 -5 -37 -11
-63 -14 -25 -2 -53 -9 -63 -14 -35 -21 100 -12 147 9 43 20 43 21 26 40 -10
11 -34 24 -54 30 -56 15 -200 20 -260 9z"/>
</g>
</svg>
