<svg width="448" height="82" viewBox="0 0 448 82" fill="none" xmlns="http://www.w3.org/2000/svg">
<path d="M93.1722 24.6814V81.2094H75.6555V24.6814H93.1722Z" fill="#59EFBD"/>
<path d="M107.042 42.8748C112.095 42.8748 116.191 38.8021 116.191 33.7781C116.191 28.7541 112.095 24.6814 107.042 24.6814C101.989 24.6814 97.8927 28.7541 97.8927 33.7781C97.8927 38.8021 101.989 42.8748 107.042 42.8748Z" fill="#2B57CE"/>
<path d="M422.902 24.5571V81.0851H405.385V24.5571H422.902Z" fill="#59EFBD"/>
<path d="M438.126 42.7402C443.179 42.7402 447.275 38.6674 447.275 33.6435C447.275 28.6195 443.179 24.5468 438.126 24.5468C433.073 24.5468 428.977 28.6195 428.977 33.6435C428.977 38.6674 433.073 42.7402 438.126 42.7402Z" fill="#2B57CE"/>
<path d="M0 25.0234H18.1732V32.8146C20.6116 29.0537 24.9881 24.64 33.8038 24.64C43.8074 24.64 53.3837 30.1208 53.3837 43.7762V80.6085H34.8875V46.2006C34.8875 41.3104 31.157 38.8342 27.0514 38.8342C22.9457 38.8342 18.4024 41.1964 18.4024 45.7655V80.6085H0V25.0234Z" fill="#59EFBD"/>
<path d="M147.612 18.8898C152.665 18.8898 156.761 14.8171 156.761 9.79311C156.761 4.76914 152.665 0.696411 147.612 0.696411C142.559 0.696411 138.463 4.76914 138.463 9.79311C138.463 14.8171 142.559 18.8898 147.612 18.8898Z" fill="#2B57CE"/>
<path d="M138.848 25.0233H156.365V80.6189H138.848V25.0233Z" fill="#59EFBD"/>
<path d="M179.033 53.0905C179.033 35.8295 190.391 23.9458 206.616 23.9458C221.486 23.9458 230.082 34.2651 230.676 46.47H215.588C214.994 42.709 212.722 37.653 206.772 37.653C200.332 37.653 196.07 42.709 196.07 52.8729C196.07 63.0367 200.395 68.8905 207.105 68.8905C213.003 68.8905 215.275 63.1922 215.754 60.1254H230.468C230.093 71.7915 221.11 81.686 206.616 81.686C190.829 81.686 179.033 70.4446 179.033 53.0801V53.0905Z" fill="#59EFBD"/>
<path d="M252.959 0.717163H271.288V32.9804C273.935 29.4888 277.884 24.8576 286.7 24.8576C297.245 24.8576 306.217 31.3123 306.217 42.9785V80.6189H287.773V45.5065C287.773 41.155 283.939 38.8342 279.77 38.8342C275.602 38.8342 271.33 41.3104 271.33 45.8277V80.6189H252.948V0.717163H252.959Z" fill="#59EFBD"/>
<path d="M328.489 53.4635C328.489 37.1764 338.712 23.9458 356.228 23.9458C373.745 23.9458 382.998 35.8813 382.998 52.4377V57.0068H346.61C346.558 64.5909 350.612 68.7248 356.614 68.7248C361.261 68.7248 365.054 67.1085 366.67 62.3219H383.113C381.279 74.4232 369.108 81.6757 357.104 81.6757C340.066 81.6757 328.5 70.5483 328.5 53.4427L328.489 53.4635ZM365.909 46.47C365.909 40.9892 362.668 36.4719 356.228 36.4719C350.445 36.4719 346.548 41.3103 346.548 46.47H365.909Z" fill="#59EFBD"/>
</svg>
